<?xml version="1.0" standalone="no"?>
<!DOCTYPE svg PUBLIC "-//W3C//DTD SVG 20010904//EN"
 "http://www.w3.org/TR/2001/REC-SVG-20010904/DTD/svg10.dtd">
<svg version="1.0" xmlns="http://www.w3.org/2000/svg"
 width="500.000000pt" height="500.000000pt" viewBox="0 0 500.000000 500.000000"
 preserveAspectRatio="xMidYMid meet">

<g transform="translate(0.000000,500.000000) scale(0.100000,-0.100000)"
fill="#000000" stroke="none">
<path d="M4273 3692 c189 -234 277 -506 277 -858 0 -375 -118 -675 -356 -904
-224 -216 -474 -321 -833 -349 -172 -14 -1190 -15 -1225 -1 -14 5 -26 8 -26 6
0 -3 56 -52 125 -110 83 -70 136 -107 158 -111 18 -4 321 -5 672 -2 692 5 704
5 893 63 123 37 303 132 403 213 206 166 341 384 410 661 22 86 24 117 24 325
0 205 -3 241 -23 334 -52 233 -143 414 -285 568 -23 25 -95 91 -160 146 l-118
99 64 -80z"/>
<path d="M3146 3184 c-14 -13 -16 -58 -16 -334 l0 -320 24 -15 c30 -20 98 -6
171 33 l50 27 3 189 c3 206 8 226 59 226 29 0 29 4 -8 68 -34 60 -94 104 -173
127 -63 19 -91 19 -110 -1z"/>
</g>
</svg>
